<svg xmlns="http://www.w3.org/2000/svg" xmlns:xlink="http://www.w3.org/1999/xlink" version="1.1" x="0px" y="0px" viewBox="0 0 100 100" enable-background="new 0 0 100 100" xml:space="preserve"><path d="M84.5,16h-69c-2.2,0-4,1.8-4,4v60c0,2.2,1.8,4,4,4h69c2.2,0,4-1.8,4-4V20C88.5,17.8,86.7,16,84.5,16z M24.526,78.231  c-0.016-0.325-0.026-0.685-0.026-1.06c0-0.376,0.011-0.736,0.026-1.062c2.159-0.817,4.419-2.552,5.365-5.47  c0.913-2.808,0.205-5.439-0.977-7.354l1.373-1.889c0.653,0.159,1.424,0.276,2.27,0.276c1.832,0,3.567-0.557,5.016-1.608  c2.391-1.735,3.363-4.284,3.532-6.528l2.211-0.714c1.455,1.714,3.738,3.202,6.688,3.202c2.951,0,5.234-1.488,6.69-3.202l2.21,0.713  c0.169,2.246,1.141,4.794,3.527,6.524c1.45,1.056,3.187,1.613,5.021,1.613c0.846,0,1.615-0.118,2.269-0.276l1.374,1.89  c-1.182,1.915-1.891,4.545-0.979,7.346c0.947,2.924,3.207,4.66,5.366,5.478c0.016,0.326,0.026,0.686,0.026,1.063  c0,0.376-0.011,0.736-0.026,1.062c-0.514,0.194-1.026,0.463-1.53,0.768h-9.907c0.078-0.6,0.126-1.208,0.126-1.829  c0-7.826-6.341-14.169-14.167-14.169c-7.824,0-14.167,6.343-14.167,14.169c0,0.621,0.048,1.229,0.126,1.829H26.06  C25.554,78.695,25.041,78.426,24.526,78.231z M38.838,77.171c0-0.384,0.02-0.764,0.058-1.138l1.973,1.791  c0.144,0.13,0.324,0.195,0.504,0.195c0.204,0,0.407-0.083,0.556-0.246c0.278-0.307,0.255-0.781-0.052-1.059l-2.651-2.408  c0.313-1.179,0.807-2.283,1.463-3.276l3.145,2.856c0.144,0.13,0.324,0.195,0.504,0.195c0.204,0,0.407-0.083,0.555-0.246  c0.279-0.307,0.256-0.781-0.051-1.06l-3.236-2.939c0.758-0.867,1.646-1.612,2.636-2.212l3.441,3.125  c0.144,0.13,0.324,0.195,0.504,0.195c0.204,0,0.407-0.083,0.556-0.246c0.278-0.307,0.255-0.781-0.052-1.06l-3.033-2.755  c1.269-0.538,2.658-0.839,4.113-0.87l2.554,2.319c0.144,0.13,0.324,0.195,0.504,0.195c0.204,0,0.407-0.083,0.556-0.246  c0.278-0.307,0.255-0.781-0.052-1.06l-1.098-0.997c5.094,1.036,8.939,5.549,8.939,10.945c0,0.625-0.063,1.233-0.164,1.829H39.002  C38.901,78.404,38.838,77.795,38.838,77.171z M80.447,79c0.034-0.521,0.063-1.151,0.063-1.829c0-1.779-0.191-3.234-0.191-3.234  c-0.144-1.091-1.15-2.117-2.238-2.282c0,0-2.497-0.377-3.206-2.565c-0.713-2.188,1.09-3.963,1.09-3.963  c0.783-0.772,0.958-2.173,0.389-3.114l-3.791-5.215c-0.474-0.545-1.234-0.846-1.977-0.846c-0.39,0-0.774,0.083-1.11,0.257  c0,0-0.894,0.463-2.021,0.463c-0.657,0-1.394-0.157-2.078-0.656c-1.863-1.351-1.447-3.846-1.447-3.846  c0.181-1.085-0.5-2.325-1.512-2.756l-6.138-1.981c-0.165-0.039-0.335-0.057-0.507-0.057c-0.939,0-1.919,0.557-2.335,1.389  c0,0-1.13,2.258-3.432,2.258c-2.3,0-3.43-2.258-3.43-2.258c-0.417-0.832-1.396-1.389-2.336-1.389c-0.172,0-0.342,0.019-0.507,0.057  l-6.137,1.981c-1.012,0.431-1.692,1.671-1.512,2.756c0,0,0.415,2.494-1.448,3.847c-0.685,0.498-1.422,0.655-2.078,0.655  c-1.128,0-2.021-0.462-2.021-0.462c-0.336-0.174-0.721-0.257-1.11-0.257c-0.744,0-1.505,0.301-1.979,0.846l-3.79,5.215  c-0.569,0.941-0.395,2.342,0.39,3.113c0,0,1.802,1.774,1.089,3.965c-0.709,2.187-3.206,2.563-3.206,2.563  c-1.088,0.165-2.095,1.191-2.239,2.282c0,0-0.191,1.455-0.191,3.234c0,0.678,0.028,1.308,0.063,1.829H16.5V21h67v9.5h-53  c-0.828,0-1.5,0.671-1.5,1.5s0.672,1.5,1.5,1.5h53V79H80.447z"></path><circle cx="78" cy="25.5" r="2.5"></circle><circle cx="70" cy="25.5" r="2.5"></circle><path d="M24.5,30.5h-3c-0.828,0-1.5,0.671-1.5,1.5s0.672,1.5,1.5,1.5h3c0.828,0,1.5-0.671,1.5-1.5S25.328,30.5,24.5,30.5z"></path></svg>