<svg xmlns="http://www.w3.org/2000/svg" xmlns:xlink="http://www.w3.org/1999/xlink" version="1.1" x="0px" y="0px" viewBox="0 0 100 100" enable-background="new 0 0 100 100" xml:space="preserve"><path d="M61.247,51.17c6.102-3.782,10.187-10.521,10.187-18.211c0-11.818-9.615-21.434-21.435-21.434  c-11.818,0-21.433,9.615-21.433,21.434c0,7.69,4.085,14.429,10.185,18.211c-14.682,4.757-25.332,18.557-25.332,34.804  c0,1.381,1.119,2.5,2.5,2.5h68.162c1.381,0,2.5-1.119,2.5-2.5C86.581,69.727,75.931,55.927,61.247,51.17z M44.134,83.474l4.167-20  h3.609l5,20H44.134z M52.278,60.474h-4.314l-3.138-5.648c1.685-0.279,3.41-0.433,5.173-0.433c2.036,0,4.026,0.196,5.956,0.565  L52.278,60.474z M33.566,32.959c0-9.062,7.372-16.434,16.433-16.434c9.063,0,16.435,7.372,16.435,16.434  s-7.372,16.434-16.435,16.434C40.938,49.393,33.566,42.021,33.566,32.959z M41.764,55.492l3.735,6.724l-4.43,21.259H18.517  C19.576,70.019,29.108,58.915,41.764,55.492z M78.181,83.474l-7.261-7.259c-0.293-0.293-0.768-0.293-1.061,0s-0.293,0.768,0,1.061  l6.199,6.198h-4.821l-2.03-2.03c-0.293-0.293-0.768-0.293-1.061,0s-0.293,0.768,0,1.061l0.97,0.97h-9.114l-5.305-21.22l4.357-6.536  c10.893,3.267,19.328,12.267,21.79,23.479l-6.261-6.26c-0.293-0.293-0.768-0.293-1.061,0s-0.293,0.768,0,1.061l7.775,7.774  c0.075,0.563,0.14,1.13,0.185,1.702H78.181z"></path><path d="M48.729,21.595c-2.921,0.324-5.575,1.744-7.475,3.998c-0.533,0.634-0.452,1.58,0.181,2.114  c0.282,0.236,0.625,0.353,0.966,0.353c0.428,0,0.852-0.182,1.148-0.533c1.4-1.663,3.357-2.711,5.51-2.949  c0.824-0.092,1.417-0.833,1.326-1.656C50.293,22.097,49.536,21.51,48.729,21.595z"></path><path d="M40.296,30.357c-0.823-0.104-1.564,0.5-1.657,1.323c-0.048,0.424-0.072,0.854-0.072,1.279c0,0.828,0.672,1.5,1.5,1.5  s1.5-0.672,1.5-1.5c0-0.319,0.019-0.635,0.053-0.945C41.712,31.191,41.119,30.449,40.296,30.357z"></path></svg>