<svg xmlns="http://www.w3.org/2000/svg" xmlns:xlink="http://www.w3.org/1999/xlink" version="1.1" x="0px" y="0px" viewBox="0 0 100 100" enable-background="new 0 0 100 100" xml:space="preserve" fill="white"><path d="M78.052,62.218c5.57-6.149,8.62-14.034,8.62-22.368c0-18.392-14.946-33.355-33.318-33.355  c-18.371,0-33.318,14.963-33.318,33.355c0,0.946,0.043,1.918,0.129,2.9c-1.725,3.484-4.265,8.483-5.524,10.961  c-0.45,0.887-0.73,1.442-0.757,1.5c-0.368,0.823-0.555,1.704-0.555,2.617c0,3.535,2.872,6.412,6.402,6.412h1.414l-0.021,8.653  c0,4.378,3.56,7.939,7.935,7.939l9.4-0.005l3.24,10.89c0.19,0.638,0.627,1.174,1.213,1.489c0.367,0.197,0.774,0.298,1.184,0.298  c0.244,0,0.489-0.036,0.728-0.108l36.693-11.16c1.32-0.401,2.065-1.797,1.665-3.118L78.052,62.218z M76.216,78.622l-7.386-7.385  c-0.293-0.293-0.768-0.293-1.061,0s-0.293,0.768,0,1.061l6.82,6.819l-3.697,1.125l-3.776-3.777c-0.293-0.293-0.768-0.293-1.061,0  s-0.293,0.768,0,1.061l3.211,3.211l-3.698,1.125l-1.944-1.945c-0.293-0.292-0.768-0.294-1.061,0c-0.293,0.293-0.293,0.768,0,1.061  l1.379,1.379l-18.168,5.526L42.72,77.614c-0.315-1.061-1.29-1.787-2.396-1.787h-0.001l-11.265,0.006  c-1.618,0-2.934-1.319-2.934-2.934l0.008-3.403h2.696c0.828,0,1.5-0.671,1.5-1.5s-0.672-1.5-1.5-1.5h-2.689l0.012-4.75  c0.002-0.664-0.262-1.301-0.73-1.771s-1.105-0.734-1.77-0.734h-3.92c-0.773,0-1.402-0.633-1.402-1.412  c0-0.205,0.04-0.398,0.087-0.506c0.048-0.096,0.298-0.588,0.683-1.344c1.343-2.644,4.139-8.144,5.866-11.656  c0.209-0.425,0.293-0.9,0.243-1.372c-0.114-1.053-0.172-2.096-0.172-3.099c0-15.635,12.703-28.355,28.318-28.355  s28.318,12.72,28.318,28.355c0,7.512-2.916,14.595-8.212,19.945c-0.646,0.653-0.882,1.606-0.615,2.485l2.628,8.657l-2.979-2.979  c-0.293-0.293-0.768-0.293-1.061,0s-0.293,0.768,0,1.061l4.964,4.964l1.274,4.197L76.216,78.622z"></path><path d="M70.622,39.194c0,0-2.171-1.302-2.617-3.106c-0.449-1.804,0.861-3.969,0.861-3.969c0.284-0.471,0.279-1.237-0.012-1.704  l-2.1-2.838c-0.29-0.336-0.822-0.552-1.298-0.552c-0.113,0-0.223,0.012-0.325,0.038c0,0-0.773,0.194-1.733,0.194  c-0.75,0-1.613-0.118-2.312-0.54c-1.595-0.96-2.197-3.416-2.197-3.416c-0.131-0.534-0.677-1.071-1.214-1.193l-3.491-0.528  c-0.027-0.002-0.056-0.003-0.084-0.003c-0.532,0-1.159,0.342-1.427,0.79c0,0-1.3,2.167-3.104,2.617  c-0.265,0.066-0.536,0.094-0.808,0.094c-1.584,0-3.161-0.954-3.161-0.954c-0.231-0.14-0.535-0.21-0.84-0.21  c-0.313,0-0.627,0.074-0.864,0.222l-2.838,2.1c-0.417,0.359-0.648,1.089-0.515,1.623c0,0,0.615,2.451-0.344,4.044  c-0.961,1.592-3.415,2.197-3.415,2.197c-0.534,0.131-1.07,0.678-1.193,1.214l-0.526,3.49c-0.039,0.549,0.314,1.229,0.786,1.512  c0,0,2.168,1.3,2.614,3.104c0.449,1.803-0.861,3.967-0.861,3.967c-0.284,0.471-0.279,1.237,0.013,1.704l2.1,2.837  c0.29,0.337,0.822,0.553,1.299,0.553c0.112,0,0.222-0.012,0.324-0.038c0,0,0.773-0.193,1.732-0.193c0.75,0,1.614,0.118,2.313,0.538  c1.592,0.96,2.196,3.417,2.196,3.417c0.132,0.534,0.678,1.071,1.214,1.193l3.49,0.526c0.027,0.002,0.055,0.003,0.083,0.003  c0.532,0,1.159-0.342,1.429-0.79c0,0,1.302-2.166,3.104-2.614c0.265-0.066,0.536-0.094,0.809-0.094c1.583,0,3.16,0.955,3.16,0.955  c0.231,0.141,0.535,0.21,0.84,0.21c0.313,0,0.627-0.074,0.864-0.222l2.837-2.098c0.417-0.358,0.648-1.088,0.516-1.622  c0,0-0.613-2.456,0.344-4.048c0.961-1.594,3.418-2.197,3.418-2.197c0.534-0.131,1.07-0.677,1.192-1.213l0.527-3.489  C71.447,40.157,71.094,39.477,70.622,39.194z M68.062,42.775c-1.216,0.437-3.229,1.406-4.362,3.286  c-1.128,1.876-1.042,4.11-0.861,5.387l-1.254,0.928c-0.882-0.415-2.314-0.945-3.874-0.945c-0.531,0-1.048,0.062-1.532,0.183  c-2.126,0.528-3.646,2.167-4.42,3.198l-1.543-0.233c-0.438-1.215-1.406-3.229-3.284-4.361c-1.066-0.641-2.365-0.966-3.858-0.966  c-0.581,0-1.107,0.05-1.524,0.108l-0.932-1.258c0.552-1.168,1.291-3.277,0.762-5.401c-0.526-2.128-2.166-3.647-3.199-4.423  l0.233-1.543c1.214-0.438,3.226-1.407,4.358-3.283c1.13-1.877,1.045-4.108,0.862-5.387l1.255-0.928  c0.882,0.414,2.314,0.943,3.874,0.943c0.529,0,1.045-0.062,1.532-0.183c2.126-0.529,3.644-2.167,4.42-3.201l1.542,0.233  c0.437,1.216,1.404,3.228,3.28,4.357c1.068,0.645,2.367,0.971,3.862,0.971c0.582,0,1.108-0.05,1.527-0.108l0.929,1.256  c-0.551,1.168-1.291,3.279-0.762,5.404c0.526,2.128,2.168,3.649,3.201,4.425L68.062,42.775z"></path><path d="M56.901,33.668c-1.146-0.689-2.408-1.018-3.655-1.018c-2.409,0-4.76,1.226-6.095,3.44c-2.021,3.359-0.938,7.724,2.422,9.748  c1.146,0.691,2.409,1.02,3.656,1.02c2.408,0,4.758-1.227,6.093-3.44C61.344,40.06,60.261,35.695,56.901,33.668z M56.753,41.869  c-0.751,1.246-2.068,1.99-3.523,1.99c-0.739,0-1.469-0.204-2.108-0.589c-1.938-1.167-2.565-3.693-1.4-5.63  c0.75-1.245,2.068-1.988,3.525-1.989c0.74,0,1.47,0.204,2.105,0.586C57.29,37.406,57.918,39.934,56.753,41.869z"></path></svg>