<svg xmlns="http://www.w3.org/2000/svg" xmlns:xlink="http://www.w3.org/1999/xlink" version="1.1" x="0px" y="0px" viewBox="0 0 100 100" enable-background="new 0 0 100 100" xml:space="preserve"><path d="M87.518,83.482L69.386,65.351c4.602-5.607,7.364-12.781,7.364-20.601c0-17.949-14.548-32.5-32.5-32.5  s-32.5,14.551-32.5,32.5c0,17.948,14.548,32.5,32.5,32.5c8.33,0,15.925-3.137,21.676-8.289l18.057,18.057  c0.488,0.488,1.128,0.732,1.768,0.732s1.279-0.244,1.768-0.732C88.494,86.042,88.494,84.458,87.518,83.482z M61.325,66.283  l-1.987-2.887c0.7-0.567,1.367-1.172,1.999-1.813l2.297,2.654C62.904,64.962,62.131,65.643,61.325,66.283z M57.552,68.809  l-1.685-3.067c0.787-0.437,1.545-0.919,2.273-1.439l1.983,2.882C59.299,67.771,58.441,68.315,57.552,68.809z M53.364,70.691  l-1.271-2.855c-0.062-0.138-0.167-0.236-0.285-0.312c0.936-0.311,1.846-0.674,2.726-1.093l1.688,3.073  C55.298,69.952,54.343,70.346,53.364,70.691z M62.36,60.472c0.644-0.74,1.247-1.516,1.797-2.331l2.488,2.538  c-0.612,0.858-1.269,1.684-1.974,2.465L62.36,60.472z M44.25,65.75c-11.579,0-21-9.42-21-21s9.421-21,21-21s21,9.42,21,21  S55.829,65.75,44.25,65.75z M16.75,44.75c0-15.164,12.336-27.5,27.5-27.5s27.5,12.336,27.5,27.5c0,5.387-1.563,10.412-4.25,14.659  l-2.412-2.46c-0.038-0.039-0.086-0.06-0.131-0.088c2.09-3.558,3.293-7.695,3.293-12.11c0-13.233-10.767-24-24-24s-24,10.767-24,24  s10.767,24,24,24c2.24,0,4.408-0.315,6.467-0.893c-0.075,0.183-0.08,0.394,0.006,0.588l1.204,2.706  c-1.095,0.319-2.216,0.576-3.363,0.758l-0.371-2.704c-0.057-0.411-0.429-0.694-0.846-0.641c-0.41,0.057-0.697,0.435-0.641,0.845  l0.37,2.696c-0.93,0.095-1.872,0.145-2.826,0.145C29.086,72.25,16.75,59.914,16.75,44.75z"></path><path d="M55.25,41.25c-0.988,0-1.922,0.228-2.762,0.623l-2.847-2.491c0.7-1.037,1.108-2.286,1.108-3.631c0-3.591-2.91-6.5-6.5-6.5  c-3.592,0-6.5,2.909-6.5,6.5c0,1.741,0.688,3.318,1.803,4.485l-2.729,4.546c-0.789-0.341-1.659-0.532-2.574-0.532  c-3.592,0-6.5,2.91-6.5,6.499s2.908,6.499,6.5,6.499c3.589,0,6.5-2.91,6.5-6.499c0-1.583-0.568-3.034-1.51-4.162l2.832-4.719  c0.682,0.243,1.412,0.382,2.178,0.382c1.151,0,2.23-0.302,3.169-0.827l2.693,2.356c-0.851,1.099-1.362,2.474-1.362,3.971  c0,3.589,2.911,6.499,6.5,6.499c3.592,0,6.5-2.91,6.5-6.499S58.842,41.25,55.25,41.25z M34.25,54.248c-1.93,0-3.5-1.57-3.5-3.499  s1.57-3.499,3.5-3.499s3.5,1.57,3.5,3.499S36.18,54.248,34.25,54.248z M40.75,35.751c0-1.93,1.57-3.5,3.5-3.5s3.5,1.57,3.5,3.5  c0,1.929-1.57,3.499-3.5,3.499S40.75,37.68,40.75,35.751z M55.25,51.249c-1.93,0-3.5-1.57-3.5-3.499c0-1.93,1.57-3.5,3.5-3.5  s3.5,1.57,3.5,3.5C58.75,49.679,57.18,51.249,55.25,51.249z"></path></svg>