<svg xmlns="http://www.w3.org/2000/svg" xmlns:xlink="http://www.w3.org/1999/xlink" version="1.1" x="0px" y="0px" viewBox="0 0 100 100" enable-background="new 0 0 100 100" xml:space="preserve" fill="white"><polygon points="23.727,73.589 23.727,73.588 23.725,73.588 "></polygon><path d="M95.127,35.862c-0.002-1.543-0.453-3.123-1.479-4.449l-6.992-8.99c-0.686-0.882-1.563-1.543-2.51-1.982  c-0.949-0.438-1.975-0.661-3.014-0.662c-1.23,0-2.496,0.318-3.623,1.023l-6.818,4.262c-0.248,0.157-0.641,0.324-1.102,0.438  c-0.461,0.115-0.988,0.179-1.502,0.178c-0.799,0.006-1.559-0.166-1.967-0.373l-6.676-3.248c-1.254-0.604-2.594-0.834-3.924-0.838  c-0.957,0-1.912,0.125-2.838,0.381c-0.924,0.258-1.82,0.644-2.639,1.221l-0.289,0.204c-0.582-0.29-1.314-0.657-2.119-1.06  c-1.496-0.732-3.137-0.994-4.795-1.005c-1.498,0.007-2.994,0.229-4.387,0.817l-4.547,1.949c-0.561,0.25-1.633,0.455-2.693,0.447  c-1.059,0.008-2.131-0.197-2.691-0.447l-4.551-1.95c-0.977-0.417-1.994-0.589-2.992-0.589c-1.146,0.001-2.273,0.227-3.332,0.656  c-1.055,0.434-2.051,1.074-2.863,1.984l-8.287,9.325c-1.084,1.218-1.627,2.758-1.625,4.269c-0.004,1.802,0.768,3.616,2.246,4.883  l6.891,5.904l-2.92,3.139l0.004,0.003c-1.182,1.25-1.775,2.866-1.773,4.458c-0.002,1.704,0.676,3.432,2.012,4.705l0.744,0.71  c0.533,0.509,1.145,0.886,1.781,1.177c-0.217,0.662-0.348,1.346-0.348,2.029c-0.002,1.705,0.674,3.434,2.012,4.707l0.744,0.711  c1.254,1.196,2.885,1.793,4.484,1.791c0.502,0.001,1.004-0.064,1.498-0.182c0.334,0.781,0.826,1.511,1.479,2.13l0.746,0.713  c1.254,1.197,2.885,1.793,4.484,1.791c0.857,0.001,1.721-0.17,2.529-0.51c0.32,0.606,0.736,1.174,1.258,1.67l0.748,0.713  c1.252,1.196,2.883,1.793,4.484,1.791c1.703,0.002,3.432-0.674,4.705-2.01l2.537-2.66l3.715,3.41l-0.014-0.012  c1.246,1.16,2.85,1.738,4.424,1.736c1.73,0.002,3.484-0.697,4.762-2.07l0.701-0.756c0.348-0.375,0.625-0.787,0.869-1.215  l0.658,0.609c1.246,1.158,2.848,1.732,4.42,1.73c1.734,0.003,3.488-0.695,4.766-2.07l0.701-0.754  c0.703-0.755,1.164-1.646,1.439-2.578c0.199,0.02,0.396,0.055,0.596,0.055c1.734,0.003,3.488-0.695,4.766-2.071l0.699-0.753  l0.002-0.002c1.158-1.246,1.734-2.85,1.732-4.422c0-0.145-0.012-0.289-0.021-0.434c1.076-0.32,2.086-0.919,2.902-1.797l0.701-0.756  c1.16-1.248,1.736-2.85,1.734-4.423c0.002-1.653-0.641-3.321-1.895-4.581l-0.705-0.805l11.143-12.38  C94.564,39.347,95.123,37.588,95.127,35.862z M51.629,27.823l1.301-0.919c0.242-0.173,0.629-0.358,1.09-0.485  c0.463-0.129,0.994-0.2,1.502-0.199c0.709-0.005,1.367,0.147,1.736,0.334l6.676,3.248c1.322,0.635,2.738,0.871,4.154,0.877  c0.91,0,1.82-0.105,2.707-0.324c0.883-0.221,1.744-0.552,2.547-1.051l6.818-4.263c0.264-0.165,0.6-0.263,0.973-0.263  c0.313,0,0.637,0.071,0.914,0.2s0.502,0.308,0.662,0.515l6.992,8.989c0.248,0.311,0.428,0.825,0.426,1.38  c0.004,0.623-0.227,1.219-0.529,1.543l-1.055,1.171l-1.684-1.682c-0.293-0.293-0.768-0.293-1.061,0s-0.293,0.768,0,1.061  l1.738,1.738l-2.283,2.538l-3.303-3.303c-0.293-0.293-0.768-0.293-1.061,0s-0.293,0.768,0,1.061l3.359,3.359l-2.285,2.538  l-2.672-2.673c-0.293-0.293-0.768-0.293-1.061,0s-0.293,0.768,0,1.061l2.729,2.729l-2.229,2.475l-4.279-3.977  c-1.73-1.604-4.504-3.877-6.416-5.258l-7.674-5.527c-0.758-0.546-1.588-0.917-2.441-1.162c-0.852-0.243-1.73-0.359-2.611-0.36  c-1.492,0.006-3.004,0.325-4.369,1.14l-2.771,1.674c-0.258,0.155-0.578,0.244-0.93,0.244c-0.313,0-0.639-0.073-0.916-0.207  c-0.279-0.133-0.504-0.316-0.662-0.532l-0.613-0.826l-0.002-0.002c-0.199-0.27-0.293-0.574-0.295-0.9  c0.004-0.483,0.215-0.94,0.604-1.231L51.629,27.823z M15.391,57.652l-0.061-0.059l-0.004-0.003l-0.002-0.001  c-0.512-0.489-0.768-1.142-0.77-1.81c0.002-0.629,0.227-1.24,0.686-1.723l7.213-7.561c0.488-0.512,1.141-0.769,1.811-0.771  c0.627,0.001,1.24,0.228,1.723,0.685l0.059,0.057l0.004,0.004c0.512,0.488,0.768,1.141,0.77,1.811  c-0.002,0.629-0.229,1.242-0.688,1.724l-7.207,7.558c-0.488,0.512-1.143,0.77-1.813,0.771  C16.484,58.333,15.871,58.108,15.391,57.652z M24.803,64.544l-1.533,1.607c-0.488,0.513-1.141,0.77-1.811,0.771  c-0.629-0.001-1.242-0.228-1.723-0.686l-0.768-0.731c-0.514-0.488-0.77-1.141-0.771-1.811c0.002-0.628,0.227-1.241,0.686-1.723  l9.625-10.094c0.488-0.512,1.141-0.768,1.811-0.77c0.629,0.002,1.242,0.227,1.723,0.686l0.768,0.732v-0.001  c0.512,0.489,0.768,1.142,0.77,1.812c0,0.628-0.227,1.242-0.686,1.724l-1.531,1.605c-0.035,0.035-0.076,0.06-0.111,0.096  l-6.342,6.647C24.869,64.451,24.842,64.501,24.803,64.544z M33.877,68.093l-2.43,2.55c-0.488,0.512-1.143,0.769-1.813,0.771  c-0.627-0.002-1.242-0.228-1.723-0.687l-0.748-0.713c-0.514-0.489-0.77-1.142-0.771-1.812c0.002-0.57,0.197-1.123,0.574-1.58  l6.572-6.893c0.475-0.437,1.072-0.666,1.691-0.667c0.629,0.001,1.242,0.228,1.725,0.687l0.746,0.712  c0.512,0.488,0.768,1.14,0.77,1.81c-0.002,0.616-0.221,1.217-0.662,1.693c-0.01,0.012-3.873,4.056-3.873,4.056  C33.914,68.042,33.898,68.069,33.877,68.093z M43.596,69.546l-3.838,4.026c-0.488,0.512-1.143,0.769-1.811,0.771  c-0.629-0.002-1.242-0.228-1.725-0.687l-0.031-0.03c-0.514-0.49-0.77-1.143-0.771-1.813c0.002-0.599,0.213-1.18,0.629-1.65  c0,0,3.924-4.121,3.934-4.131c0.484-0.488,1.119-0.736,1.773-0.738c0.629,0.002,1.242,0.227,1.725,0.686l0.033,0.033  c0.512,0.488,0.768,1.14,0.77,1.809C44.281,68.45,44.055,69.063,43.596,69.546z M78.953,59.896l-0.334,0.359  c-0.488,0.525-1.152,0.791-1.834,0.793c-0.576-0.002-1.137-0.2-1.6-0.588l-9.547-8.852c-0.605-0.564-1.555-0.529-2.119,0.078  c-0.564,0.606-0.529,1.556,0.078,2.119l10.324,9.574c0.525,0.49,0.791,1.154,0.793,1.834c-0.002,0.618-0.219,1.221-0.664,1.701  l-0.719,0.774c-0.49,0.526-1.154,0.792-1.834,0.794c-0.617-0.002-1.221-0.22-1.699-0.664l-10.322-9.588  c-0.607-0.564-1.557-0.529-2.121,0.078c-0.563,0.607-0.527,1.557,0.08,2.119l9.043,8.4c0.508,0.487,0.768,1.137,0.77,1.806  c-0.002,0.616-0.221,1.22-0.664,1.698l-0.723,0.777c-0.49,0.527-1.154,0.793-1.838,0.795c-0.617-0.001-1.221-0.219-1.701-0.662  l-9.426-8.741c-0.607-0.563-1.557-0.527-2.119,0.08s-0.527,1.557,0.08,2.12l4.795,4.451c0.531,0.493,0.799,1.16,0.799,1.839  c0,0.61-0.215,1.202-0.65,1.673c-0.482,0.518-1.137,0.779-1.813,0.781c-0.619-0.002-1.227-0.221-1.709-0.668l-5.381-4.936  c0.256-0.65,0.385-1.338,0.385-2.021c0-1.445-0.57-2.904-1.699-3.98l-0.008-0.008l-0.033-0.031l0.008,0.008  c-1.061-1.013-2.438-1.518-3.795-1.516c-0.096,0-0.193,0.023-0.289,0.028c0-0.017,0.004-0.034,0.004-0.052  c0.002-1.445-0.568-2.904-1.699-3.98v-0.001l-0.746-0.712c-0.795-0.757-1.764-1.229-2.771-1.419  c0.207-0.591,0.324-1.207,0.324-1.821c0.002-1.445-0.568-2.905-1.699-3.982l-0.768-0.732c-1.061-1.012-2.436-1.516-3.793-1.514  c-0.172,0-0.342,0.034-0.512,0.051c-0.031-1.403-0.59-2.809-1.686-3.855l-0.063-0.062c-1.061-1.013-2.438-1.517-3.795-1.516  c-1.445-0.001-2.904,0.569-3.982,1.7l-1.35,1.416l-8.559-7.334c-0.338-0.291-0.496-0.676-0.5-1.086  c0.002-0.342,0.113-0.664,0.361-0.947l8.289-9.325c0.207-0.236,0.566-0.495,1.016-0.677c0.445-0.184,0.973-0.287,1.441-0.285  c0.412-0.002,0.773,0.076,1.023,0.185l4.551,1.95c1.461,0.615,3.055,0.844,4.66,0.852c1.605-0.008,3.199-0.236,4.662-0.852  l4.549-1.949c0.529-0.236,1.477-0.42,2.416-0.413c0.947-0.01,1.883,0.188,2.4,0.413l-2.896,2.182  c-1.701,1.285-2.596,3.256-2.594,5.226c0,1.343,0.418,2.72,1.281,3.882l-0.002-0.002l0.613,0.827  c0.682,0.917,1.564,1.608,2.525,2.066c0.963,0.458,2.008,0.693,3.07,0.694c1.191,0,2.414-0.302,3.514-0.964l2.771-1.675  c0.367-0.23,1.057-0.425,1.785-0.419c0.428-0.001,0.861,0.06,1.236,0.168c0.377,0.106,0.688,0.261,0.895,0.411l7.674,5.527  c1.658,1.191,4.439,3.471,5.936,4.863l2.596,2.412l0.012-0.012l5.164,4.8c0.527,0.489,0.793,1.153,0.795,1.834  C79.615,58.813,79.396,59.416,78.953,59.896z"></path></svg>