<svg xmlns="http://www.w3.org/2000/svg" viewBox="0 0 533.333 533.333"><defs><clipPath id="a"><path d="M0 400h400V0H0z"/></clipPath></defs><g clip-path="url(#a)" transform="matrix(1.33333 0 0 -1.33333 0 533.333)"><path d="M250.16 219.27l-9.43-1.96c-.61-.13-1.17.33-1.17.95v.33c0 .54-.44.97-.98.97h-46.67c-.63 0-1.1.6-.95 1.21.02.08.03.16.03.24 0 .53-.45.99-1.02.96l-49.71-1.86c.483.994 8.57 1.987 11.045 2.98.42.17.873.25 1.327.272l40.4 3.052c-4.076 1.486-39.737-.413-39.234.516 18.683 34.567 46.212 63.68 46.212 63.68s31.69-33.53 50.15-71.34M263.106 172.495c0-27.93-18.15-51.63-43.3-59.93-6.23-2.06-12.88-3.17-19.8-3.17s-13.57 1.11-19.8 3.17c-15.8 5.21-28.84 16.5-36.36 31.1-3.28 6.385-5.51 13.404-6.447 20.83-.56 4.436-2.323 22.583-4.804 28.033-2.008 4.412-5.492 5.76-8.65 6.92-2.585.948-12.053 1.337-12.053 1.337-.7.593-.3 1.737.618 1.763l17.042 1.678c.21.006.414.078.58.207l1.204.925c.175.134.39.207.61.207h62.5c.48 0 .93.225 1.216.608.657.876 1.69 1.392 2.784 1.392h51.518c.286 0 .42-.354.204-.542l-7.752-4.168c-.213-.187-.486-.29-.77-.29h-2.12c-.245 0-.482-.087-.668-.247l-19.414-1.344 24.81-.41c.438 0 .83-.276.977-.69l1.418-3c.16-.453.466-.842.87-1.105l13.238-6.7c.307-.202.525-.518.6-.877 1.125-5.328 1.75-10.588 1.75-15.698"/></g></svg>