<svg xmlns="http://www.w3.org/2000/svg" xmlns:xlink="http://www.w3.org/1999/xlink" version="1.1" x="0px" y="0px" viewBox="0 0 100 100" enable-background="new 0 0 100 100" xml:space="preserve"><path d="M25.5,50.5c0-4.971-4.03-9-9-9c-4.971,0-9,4.029-9,9c0,4.97,4.029,9,9,9C21.47,59.5,25.5,55.47,25.5,50.5z M16.5,56.5  c-3.309,0-6-2.691-6-6s2.691-6,6-6s6,2.691,6,6S19.809,56.5,16.5,56.5z"></path><path d="M64.5,30.5c4.971,0,9-4.03,9-9c0-4.971-4.029-9-9-9s-9,4.029-9,9C55.5,26.47,59.529,30.5,64.5,30.5z M64.5,15.5  c3.309,0,6,2.691,6,6s-2.691,6-6,6s-6-2.691-6-6S61.191,15.5,64.5,15.5z"></path><path d="M65.5,68.5c-4.971,0-9,4.029-9,9c0,4.971,4.029,9,9,9s9-4.029,9-9C74.5,72.529,70.471,68.5,65.5,68.5z M65.5,83.5  c-3.309,0-6-2.691-6-6s2.691-6,6-6s6,2.691,6,6S68.809,83.5,65.5,83.5z"></path><path d="M81.5,38.5c-5.213,0-9.57,3.631-10.703,8.5h-8.532c-1.181-6.537-6.887-11.5-13.765-11.5c-2.048,0-3.987,0.45-5.74,1.24  l-4.126-6.876C40.997,27.846,42.5,24.85,42.5,21.5c0-6.075-4.924-11-11-11c-6.074,0-11,4.925-11,11c0,6.074,4.926,11,11,11  c0.926,0,1.82-0.127,2.68-0.342l4.449,7.417C36.08,42.11,34.5,45.62,34.5,49.5c0,4.383,2.017,8.292,5.17,10.859l-4.49,7.483  C34.32,67.627,33.426,67.5,32.5,67.5c-6.074,0-11,4.925-11,11c0,6.074,4.926,11,11,11c6.076,0,11-4.926,11-11  c0-3.351-1.503-6.347-3.866-8.364l4.421-7.368c1.398,0.468,2.89,0.732,4.445,0.732c6.878,0,12.584-4.963,13.765-11.5h8.532  c1.133,4.868,5.49,8.5,10.703,8.5c6.076,0,11-4.926,11-11C92.5,43.425,87.576,38.5,81.5,38.5z M25.5,21.5c0-3.309,2.691-6,6-6  s6,2.691,6,6s-2.691,6-6,6S25.5,24.809,25.5,21.5z M32.5,84.5c-3.309,0-6-2.691-6-6s2.691-6,6-6s6,2.691,6,6S35.809,84.5,32.5,84.5z   M39.5,49.5c0-4.962,4.037-9,9-9s9,4.038,9,9c0,0.542-0.057,1.069-0.148,1.584l-1.218-1.218c-0.293-0.293-0.768-0.293-1.061,0  s-0.293,0.768,0,1.061l1.813,1.813c-0.429,1.106-1.067,2.105-1.871,2.951l-3.853-3.854c-0.293-0.293-0.768-0.293-1.061,0  c-0.293,0.292-0.293,0.768,0,1.061l3.79,3.791c-0.962,0.723-2.069,1.256-3.273,1.549l-2.429-2.429c-0.293-0.293-0.768-0.293-1.061,0  s-0.293,0.768,0,1.061l1.618,1.618C48.664,58.49,48.584,58.5,48.5,58.5C43.537,58.5,39.5,54.462,39.5,49.5z M81.5,55.5  c-3.309,0-6-2.691-6-6s2.691-6,6-6s6,2.691,6,6S84.809,55.5,81.5,55.5z"></path></svg>