<svg xmlns="http://www.w3.org/2000/svg" xmlns:xlink="http://www.w3.org/1999/xlink" version="1.1" x="0px" y="0px" viewBox="0 0 100 100" enable-background="new 0 0 100 100" xml:space="preserve" fill="white"><path d="M51.553,22.293c0-0.829-0.671-1.5-1.5-1.5c-5.675,0-11.09,2.965-14.133,7.739c-0.445,0.698-0.24,1.625,0.458,2.071  c0.25,0.16,0.529,0.235,0.805,0.235c0.495,0,0.98-0.245,1.266-0.694c2.498-3.917,6.944-6.351,11.604-6.351  C50.881,23.793,51.553,23.122,51.553,22.293z"></path><path d="M35.22,33.838c-0.833-0.084-1.558,0.525-1.636,1.35c-0.042,0.435-0.063,0.873-0.063,1.312c0,0.829,0.671,1.5,1.5,1.5  s1.5-0.671,1.5-1.5c0-0.343,0.017-0.686,0.049-1.026C36.649,34.649,36.044,33.917,35.22,33.838z"></path><path d="M50,10.5c-15.75,0-28,12.857-28,26.465c0,18.213,15.42,18.258,15.42,30.023v12.488c0,3.645,2.624,6.378,6.124,6.378h0.332  C44.597,87.977,46.5,89.5,50,89.5c3.501,0,5.404-1.523,6.125-3.646h0.06c3.5,0,6.125-2.733,6.125-6.378V66.988  C62.31,55.223,78,55.178,78,36.965C78,23.357,65.751,10.5,50,10.5z M34.411,51.977C30.435,48.189,27,44.919,27,36.965  C27,26.813,36.446,15.5,50,15.5s23,11.313,23,21.465c0,0.817-0.046,1.573-0.117,2.297L71.692,38.6  c-0.361-0.201-0.818-0.072-1.02,0.292c-0.201,0.362-0.071,0.818,0.292,1.02l1.705,0.947c-0.257,1.4-0.659,2.619-1.167,3.718  l-2.721-1.914c-0.339-0.237-0.807-0.157-1.045,0.182c-0.238,0.339-0.157,0.807,0.182,1.045l2.883,2.028  c-0.603,1.013-1.307,1.923-2.076,2.787l-1.855-1.93c-0.287-0.3-0.763-0.31-1.06-0.021c-0.299,0.287-0.308,0.762-0.021,1.06  l1.91,1.986c-0.7,0.709-1.438,1.402-2.198,2.112l-2.518-2.737c-0.279-0.305-0.754-0.324-1.06-0.044  c-0.305,0.28-0.325,0.755-0.044,1.06l2.531,2.751c-0.768,0.732-1.549,1.508-2.302,2.349l-1.252-1.17  c-0.303-0.283-0.777-0.267-1.06,0.036c-0.283,0.303-0.267,0.777,0.036,1.06l1.308,1.222c-2.14,2.688-3.828,6.024-3.828,10.55V68  H42.42v-1.012C42.42,59.603,37.979,55.374,34.411,51.977z M56.185,80.854h-0.06c-2.142,0-4.046,1.364-4.734,3.392  c-0.005,0.014-0.009,0.025-0.013,0.035C51.281,84.332,50.9,84.5,50,84.5c-0.899,0-1.281-0.168-1.377-0.219  c-0.004-0.01-0.008-0.021-0.013-0.035c-0.688-2.027-2.593-3.392-4.734-3.392h-0.332c-1.015,0-1.124-0.964-1.124-1.378V71h14.89  v8.477C57.31,79.891,57.2,80.854,56.185,80.854z"></path></svg>