<svg xmlns="http://www.w3.org/2000/svg" xmlns:xlink="http://www.w3.org/1999/xlink" version="1.1" x="0px" y="0px" viewBox="0 0 100 100" enable-background="new 0 0 100 100" xml:space="preserve"><path d="M27,48.25c-0.828,0-1.5,0.671-1.5,1.5v10.009c0,0.829,0.672,1.5,1.5,1.5s1.5-0.671,1.5-1.5V49.75  C28.5,48.921,27.828,48.25,27,48.25z" fill="white"></path><path d="M27,64.259c-0.828,0-1.5,0.671-1.5,1.5v1c0,0.829,0.672,1.5,1.5,1.5s1.5-0.671,1.5-1.5v-1  C28.5,64.93,27.828,64.259,27,64.259z"></path><path d="M80,40.75h-5.053v-5.553C74.947,21.441,63.756,10.25,50,10.25S25.053,21.441,25.053,35.197v5.553H20c-2.2,0-4,1.8-4,4v41  c0,2.2,1.8,4,4,4h60c2.2,0,4-1.8,4-4v-41C84,42.55,82.2,40.75,80,40.75z M30.053,35.197c0-10.999,8.948-19.947,19.947-19.947  s19.947,8.948,19.947,19.947v5.553H66.5v-5.498c0-9.098-7.402-16.5-16.5-16.5s-16.5,7.402-16.5,16.5v5.498h-3.447V35.197z   M63.5,40.75h-27v-5.498c0-7.444,6.056-13.5,13.5-13.5s13.5,6.056,13.5,13.5V40.75z M75.46,84.75l-6.229-6.23  c-0.293-0.293-0.768-0.293-1.061,0s-0.293,0.768,0,1.061l5.169,5.17h-4.822l-2.778-2.779c-0.292-0.292-0.767-0.294-1.061,0  c-0.293,0.293-0.293,0.768,0,1.061l1.719,1.719H21v-39h58v21.712l-1.356-1.356c-0.293-0.293-0.768-0.293-1.061,0  s-0.293,0.768,0,1.061L79,69.583v4.822l-4.392-4.392c-0.293-0.293-0.768-0.293-1.061,0s-0.293,0.768,0,1.061L79,76.526v4.821  l-8.056-8.055c-0.293-0.293-0.768-0.293-1.061,0s-0.293,0.768,0,1.061L79,83.468v1.282H75.46z"></path><path d="M50,56.75c-3.867,0-7,3.134-7,7c0,3.351,2.354,6.148,5.5,6.835v7.165c0,0.829,0.672,1.5,1.5,1.5s1.5-0.671,1.5-1.5v-7.165  c3.146-0.687,5.5-3.484,5.5-6.835C57,59.884,53.867,56.75,50,56.75z M50,67.75c-2.206,0-4-1.794-4-4s1.794-4,4-4s4,1.794,4,4  S52.206,67.75,50,67.75z"></path></svg>