<svg xmlns="http://www.w3.org/2000/svg" xmlns:xlink="http://www.w3.org/1999/xlink" version="1.1" x="0px" y="0px" viewBox="0 0 100 100" enable-background="new 0 0 100 100" xml:space="preserve"><path d="M88.717,44.874l-8.375-8.375c1.609-0.642,3.085-1.609,4.345-2.869c5.049-5.05,5.048-13.266,0-18.314  c-2.446-2.446-5.699-3.794-9.158-3.794c-3.46,0-6.712,1.348-9.158,3.794c-1.264,1.264-2.231,2.736-2.871,4.341l-8.375-8.374  c-1.187-1.186-2.769-1.839-4.454-1.839s-3.267,0.652-4.456,1.84L32.109,25.392c-0.976,0.977-0.976,2.559,0,3.535l1.69,1.69  c0.59,0.59,1.435,0.848,2.254,0.685c1.969-0.39,4.038,0.232,5.462,1.655c2.359,2.359,2.359,6.198,0,8.558  c-1.143,1.143-2.663,1.771-4.279,1.771s-3.136-0.629-4.278-1.771c-1.431-1.432-2.05-3.473-1.656-5.462  c0.162-0.818-0.095-1.663-0.685-2.253l-1.691-1.69c-0.977-0.977-2.56-0.977-3.535,0L11.283,46.217c-2.456,2.456-2.456,6.452,0,8.91  l8.376,8.375c-1.61,0.642-3.085,1.609-4.345,2.869c-5.05,5.049-5.05,13.266,0,18.315c2.447,2.445,5.699,3.792,9.158,3.792  c3.46,0,6.712-1.348,9.157-3.793c1.264-1.265,2.232-2.737,2.872-4.342l8.373,8.372c1.187,1.188,2.769,1.841,4.455,1.841  s3.268-0.653,4.456-1.841l14.107-14.108c0.469-0.469,0.732-1.104,0.732-1.768s-0.264-1.299-0.732-1.768l-1.69-1.689  c-0.59-0.59-1.437-0.845-2.252-0.686c-1.971,0.393-4.04-0.232-5.463-1.654c-2.359-2.359-2.359-6.198,0-8.559  c1.143-1.143,2.663-1.771,4.279-1.771s3.136,0.629,4.278,1.771c1.431,1.431,2.049,3.473,1.656,5.463  c-0.162,0.818,0.094,1.663,0.684,2.253l1.69,1.69c0.469,0.469,1.105,0.732,1.768,0.732s1.299-0.264,1.768-0.732l14.109-14.107  C91.173,51.328,91.173,47.332,88.717,44.874z M85.182,50.249l-11.42,11.419c-0.249-2.508-1.352-4.887-3.183-6.718  c-2.087-2.087-4.862-3.236-7.814-3.236c-2.952,0-5.727,1.149-7.815,3.236c-4.308,4.31-4.308,11.32,0.001,15.63  c1.827,1.825,4.18,2.933,6.717,3.181l-5.769,5.769l0-2.471c0-0.414-0.336-0.75-0.75-0.75c-0.415,0-0.75,0.336-0.75,0.75l0,3.971  l-3.409,3.409v-9.38c0-0.414-0.336-0.75-0.75-0.75s-0.75,0.336-0.75,0.75v10.487c-0.06,0.008-0.117,0.012-0.162,0.012  c-0.203,0-0.591-0.049-0.919-0.376l-2.33-2.329l0.001-4.717c0-0.414-0.335-0.75-0.75-0.75c-0.414,0-0.75,0.336-0.75,0.75l0,3.217  l-7.903-7.903c-0.479-0.479-1.118-0.732-1.768-0.732c-0.334,0-0.671,0.067-0.991,0.205c-0.94,0.406-1.538,1.346-1.508,2.369  c0.066,2.219-0.756,4.3-2.317,5.859c-1.501,1.502-3.498,2.329-5.622,2.329c-2.124,0-4.121-0.827-5.623-2.328  c-3.1-3.101-3.1-8.144,0-11.244c1.497-1.496,3.493-2.32,5.621-2.32l0.24,0.004c1.013,0.035,1.963-0.567,2.369-1.509  c0.406-0.94,0.197-2.033-0.528-2.758L14.819,51.592c-0.499-0.499-0.499-1.341-0.001-1.84l11.421-11.42  c0.249,2.508,1.352,4.886,3.183,6.718c2.087,2.087,4.862,3.236,7.814,3.236s5.727-1.149,7.814-3.236  c4.309-4.309,4.309-11.319,0-15.629c-1.827-1.826-4.181-2.934-6.717-3.182L49.75,14.82c0.329-0.328,0.718-0.377,0.921-0.377  s0.592,0.049,0.919,0.375L63.324,26.55c0.725,0.726,1.82,0.934,2.759,0.527c0.941-0.406,1.538-1.346,1.508-2.37  c-0.066-2.217,0.756-4.298,2.316-5.857c1.501-1.502,3.498-2.329,5.622-2.329c2.124,0,4.12,0.827,5.622,2.329  c3.1,3.1,3.099,8.144,0,11.244c-1.496,1.495-3.491,2.319-5.618,2.319l-0.242-0.004c-1.051-0.043-1.964,0.566-2.37,1.508  c-0.407,0.941-0.197,2.034,0.527,2.759l11.732,11.732C85.68,48.908,85.68,49.75,85.182,50.249z"></path><path d="M52.071,19.669c-0.858-0.854-2.254-0.855-3.113,0.002l-2.607,2.607c-0.586,0.586-0.586,1.535,0,2.121  c0.293,0.293,0.677,0.439,1.061,0.439s0.768-0.146,1.061-0.439l2.046-2.046l2.008,1.994c0.587,0.582,1.538,0.582,2.121-0.008  c0.583-0.588,0.58-1.537-0.008-2.121L52.071,19.669z"></path><path d="M58.512,26.081c-0.587-0.586-1.537-0.583-2.122,0.004c-0.585,0.586-0.583,1.536,0.003,2.121l0.751,0.749  c0.293,0.292,0.676,0.438,1.059,0.438c0.385,0,0.77-0.147,1.063-0.441c0.584-0.586,0.583-1.536-0.003-2.121L58.512,26.081z"></path></svg>